General:


Title: Star Trek: The Motion Picture  
Director: Robert Wise
Release Date: 7 December 1979 (USA)
Runtime: 132 min   
Genre: Sci-Fi | Adventure | Fantasy
Color: Color
IMDb Rating:  6.2/10   23,989 votes         
IMDB Link: http://www.imdb.com/title/tt0079945/
Studio: Paramount
Language: English
Subtitles: English, English SDH, French, German, Spanish
Sample Video: yes


Plot:

An alien phenomenon of unprecedented size and power is approaching Earth, destroying everything in its path. The only starship in range is the U.S.S. Enterprise--still in drydock after a major overhaul. As Captain Decker readies his ship and his crew to face this menace, the legendary Admiral James T. Kirk arrives with orders to take command of the Enterprise and intercept the intruder. But it has been three years since Kirk last commanded the Enterprise on its historic five year mission...is he up to the task of saving the Earth?


Video:


Format                           : H.264/MPEG-4 AVC
Format/Info                      : Advanced Video Codec
Format profile                   : High@L4.1
Format settings, CABAC           : Yes
Format settings, ReFrames        : 4 frames
Codec ID                         : avc1
Codec ID/Info                    : Advanced Video Coding
Duration                         : 2h 10mn
Bit rate mode                    : Variable
Bit rate                         : 1970 Kbps
Maximum bit rate                 : 13.1 Mbps
Width                            : 1374 pixels
Height                           : 592 pixels
Display aspect ratio             : 2.35:1
Frame rate mode                  : Constant
Frame rate                       : 23.976 fps
Resolution                       : 24 bits
Colorimetry                      : 4:2:0
Scan type                        : Progressive
Bits/(Pixel*Frame)               : 0.101
Stream size                      : 1.79 GiB (81%)


Audio:


Format                           : mp4a - MPEG-4 AAC LC
Format/Info                      : Advanced Audio Codec
Format version                   : Version 4
Format profile                   : LC
Format settings, SBR             : No
Codec ID                         : 40
Duration                         : 2h 10mn
Bit rate mode                    : Variable
Bit rate                         : 459 Kbps
Maximum bit rate                 : 518 Kbps
Channel(s)                       : 6 channels
Channel positions                : Front: L C R, Rear: L R, LFE
Sampling rate                    : 48.0 KHz
Resolution                       : 16 bits
Stream size                      : 428 MiB (19%)



Thanks and keep seeding.

IceBane





